<svg width="120" height="120" viewBox="0 0 120 120" fill="none" xmlns="http://www.w3.org/2000/svg">
<circle cx="60" cy="60" r="58.5" fill="#26CBE5" stroke="#33A3E1" stroke-width="3"/>
<path d="M54 68.1048V84.1218C65.4822 94.6105 70.4187 96.5529 76.9219 93.9785C83.9875 83.8742 83.3914 78.2091 76.9219 68.1048C61.7735 63.6681 57.5998 64.2731 54 68.1048Z" fill="#9AE33C" stroke="#33A3E1" stroke-width="2"/>
<path d="M112.75 33.5C104.436 52.6981 104.155 62.201 116.75 76.5C119.515 59.6731 119.863 50.2549 112.75 33.5Z" fill="#9AE33C" stroke="#33A3E1" stroke-width="2"/>
<path d="M26.5361 12C6.20794 30.5 -0.0468876 44.0001 2.55932 66C16.4108 62.4293 21.9039 59.4907 27.5785 52.5C44.0274 38.437 43.4613 35.5145 40.0881 31.5C41.0539 20.9565 38.9705 15.4373 26.5361 12Z" fill="#9AE33C" stroke="#33A3E1" stroke-width="2"/>
</svg>
