<svg width="120" height="120" viewBox="0 0 120 120" fill="none" xmlns="http://www.w3.org/2000/svg">
<path d="M85.1959 86H32.3763C30.5539 86 28.8759 86.9915 27.9967 88.5878L18.0825 106.588C16.2471 109.92 18.6578 114 22.4622 114H96.8194C100.78 114 103.168 109.615 101.02 106.288L89.3963 88.2876C88.4753 86.8614 86.8936 86 85.1959 86Z" fill="#F59E0B" stroke="#D97706" stroke-width="3"/>
<path d="M68.5 33V54.7397C68.5 55.7058 68.7799 56.6513 69.3059 57.4617L100.988 106.278C103.147 109.604 100.76 114 96.7942 114H22.3568C18.5767 114 16.1637 109.967 17.9508 106.636L44.4059 57.3273C44.7959 56.6004 45 55.7883 45 54.9634V33" stroke="#D97706" stroke-width="3"/>
<circle cx="63" cy="9" r="4" fill="#F59E0B"/>
<circle cx="64.5" cy="24.5" r="2.5" fill="#F59E0B"/>
<circle cx="49" cy="21" r="4" fill="#F59E0B"/>
<circle cx="55.5" cy="59.5" r="3.5" fill="#F59E0B"/>
</svg>
