<svg width="120" height="120" viewBox="0 0 120 120" fill="none" xmlns="http://www.w3.org/2000/svg">
<rect x="38" y="116.5" width="98" height="3" rx="1.5" transform="rotate(-35 38 116.5)" fill="#7C3AED"/>
<rect x="77" y="67.8109" width="45" height="3" rx="1.5" transform="rotate(-35 77 67.8109)" fill="#7C3AED"/>
<rect x="65" y="76.7358" width="10" height="3" rx="1.5" transform="rotate(-35 65 76.7358)" fill="#7C3AED"/>
<rect x="50" y="62.0752" width="35" height="3" rx="1.5" transform="rotate(-35 50 62.0752)" fill="#7C3AED"/>
<rect x="85" y="39.7358" width="15" height="3" rx="1.5" transform="rotate(-35 85 39.7358)" fill="#7C3AED"/>
<rect x="8" y="69.2105" width="98" height="3" rx="1.5" transform="rotate(-35 8 69.2105)" fill="#7C3AED"/>
<circle cx="30" cy="90" r="28.5" fill="#A78BFA" stroke="#7C3AED" stroke-width="3"/>
<circle cx="23.5" cy="79.5" r="6.5" fill="#C4B5FD"/>
<circle cx="45" cy="91" r="4" fill="#C4B5FD"/>
<circle cx="29" cy="100" r="5" fill="#C4B5FD"/>
</svg>
