<svg width="150" height="150" viewBox="0 0 150 150" fill="none" xmlns="http://www.w3.org/2000/svg">
<g clip-path="url(#clip0_85:2)">
<rect width="150" height="150" rx="8" fill="#26CBE6"/>
<g filter="url(#filter0_d_85:2)">
<path d="M76.665 39.8711C88.8753 39.8711 98.6328 43.416 105.938 50.5059C113.242 57.5957 116.895 67.0667 116.895 78.9189C116.895 88.6943 114.442 96.9479 109.536 103.68L119.419 112.972L111.523 120.921L100.781 111.146C93.9421 115.586 85.9391 117.806 76.7725 117.806C71.0433 117.806 65.708 116.928 60.7666 115.174C55.861 113.419 51.582 110.931 47.9297 107.708C44.3132 104.485 41.4665 100.421 39.3896 95.5156C37.3486 90.61 36.3281 85.1494 36.3281 79.1338C36.3281 71.2204 38.029 64.2917 41.4307 58.3477C44.8682 52.3678 49.6305 47.8024 55.7178 44.6514C61.805 41.4645 68.7874 39.8711 76.665 39.8711ZM75.8594 52.2783C73.3887 52.2783 70.9538 52.5827 68.5547 53.1914C66.1914 53.8001 63.8818 54.7848 61.626 56.1455C59.4059 57.4704 57.4544 59.1175 55.7715 61.0869C54.0885 63.0205 52.7279 65.4733 51.6895 68.4453C50.6868 71.3815 50.1855 74.6221 50.1855 78.167C50.1855 82.5355 50.9375 86.4743 52.4414 89.9834C53.9453 93.4567 55.9684 96.3034 58.5107 98.5234C61.0889 100.743 64.043 102.444 67.373 103.626C70.7031 104.808 74.2301 105.398 77.9541 105.398C82.609 105.398 86.8343 104.45 90.6299 102.552L72.6904 88.1035L82.1973 79.7783L99.4922 94.334C101.712 90.5384 102.822 85.7939 102.822 80.1006C102.822 75.8395 102.214 72.0439 100.996 68.7139C99.8145 65.3838 98.2926 62.7161 96.4307 60.7109C94.6045 58.7057 92.4561 57.0407 89.9854 55.7158C87.5146 54.391 85.1335 53.4958 82.8418 53.0303C80.5501 52.529 78.2227 52.2783 75.8594 52.2783Z" fill="#F7F7F7"/>
</g>
</g>
<defs>
<filter id="filter0_d_85:2" x="32.3281" y="38.8711" width="91.0908" height="89.0498" filterUnits="userSpaceOnUse" color-interpolation-filters="sRGB">
<feFlood flood-opacity="0" result="BackgroundImageFix"/>
<feColorMatrix in="SourceAlpha" type="matrix" values="0 0 0 0 0 0 0 0 0 0 0 0 0 0 0 0 0 0 127 0" result="hardAlpha"/>
<feOffset dy="3"/>
<feGaussianBlur stdDeviation="2"/>
<feComposite in2="hardAlpha" operator="out"/>
<feColorMatrix type="matrix" values="0 0 0 0 0 0 0 0 0 0 0 0 0 0 0 0 0 0 0.25 0"/>
<feBlend mode="normal" in2="BackgroundImageFix" result="effect1_dropShadow_85:2"/>
<feBlend mode="normal" in="SourceGraphic" in2="effect1_dropShadow_85:2" result="shape"/>
</filter>
<clipPath id="clip0_85:2">
<rect width="150" height="150" rx="15" fill="white"/>
</clipPath>
</defs>
</svg>
